<?xml version="1.0" encoding="utf-8"?>
<!-- Generator: Adobe Illustrator 19.0.0, SVG Export Plug-In . SVG Version: 6.00 Build 0)  -->
<svg version="1.1" id="Layer_1" xmlns="http://www.w3.org/2000/svg" xmlns:xlink="http://www.w3.org/1999/xlink" x="0px" y="0px"
	 viewBox="0 0 595.3 841.9" style="enable-background:new 0 0 595.3 841.9;" xml:space="preserve">
<style type="text/css">
	.st0{fill:#FFED00;stroke:#000000;stroke-width:6;stroke-miterlimit:10;}
	.st1{stroke:#000000;stroke-miterlimit:10;}
</style>
<path id="XMLID_209_" class="st0 jrvi" d="M403.5,268.3H179.2c-6.6,0-12-5.4-12-12V138.8c0-6.6,5.4-12,12-12h224.3c6.6,0,12,5.4,12,12
	v117.5C415.5,262.9,410.1,268.3,403.5,268.3z"/>
<path id="XMLID_208_" class="st1" d="M224.9,231.8L224.9,231.8c-4.5,0-8.1-3.6-8.1-8.1v-69.6c0-4.5,3.6-8.1,8.1-8.1h0
	c4.5,0,8.1,3.6,8.1,8.1v69.6C233,228.2,229.4,231.8,224.9,231.8z"/>
<path id="XMLID_207_" class="st1" d="M188.1,246.3L188.1,246.3c-2.2-3.9-0.9-8.8,3-11l29.8-17.1c3.9-2.2,8.8-0.9,11,3l0,0
	c2.2,3.9,0.9,8.8-3,11l-29.8,17.1C195.3,251.5,190.3,250.2,188.1,246.3z"/>
<path id="XMLID_206_" class="st1" d="M254.4,249.8L254.4,249.8c-4.5,0-8.1-3.6-8.1-8.1v-88.2c0-4.5,3.6-8.1,8.1-8.1h0
	c4.5,0,8.1,3.6,8.1,8.1v88.2C262.4,246.2,258.8,249.8,254.4,249.8z"/>
<path id="XMLID_205_" class="st1" d="M246.3,198.2L246.3,198.2c-0.1-4.5,3.5-8.1,8-8.2l28.9-0.4c4.5-0.1,8.1,3.5,8.2,8v0
	c0.1,4.5-3.5,8.1-8,8.2l-28.9,0.4C250,206.2,246.3,202.6,246.3,198.2z"/>
<path id="XMLID_204_" class="st1" d="M248.4,148L248.4,148c3-3.3,8.2-3.4,11.4-0.4l28.9,27c3.3,3,3.4,8.2,0.4,11.4l0,0
	c-3,3.3-8.2,3.4-11.4,0.4l-28.9-27C245.6,156.4,245.4,151.3,248.4,148z"/>
<path id="XMLID_203_" class="st1" d="M283.3,203.2L283.3,203.2c-4.5,0-8.1-3.6-8.1-8.1v-14.3c0-4.5,3.6-8.1,8.1-8.1l0,0
	c4.5,0,8.1,3.6,8.1,8.1v14.3C291.3,199.6,287.7,203.2,283.3,203.2z"/>
<path id="XMLID_202_" class="st1" d="M248.4,192.1L248.4,192.1c3-3.3,8.2-3.4,11.4-0.4l47.3,44.1c3.3,3,3.4,8.2,0.4,11.4l0,0
	c-3,3.3-8.2,3.4-11.4,0.4l-47.3-44.1C245.6,200.5,245.4,195.3,248.4,192.1z"/>
<path id="XMLID_201_" class="st1" d="M308.9,221.7L308.9,221.7c-4.5,0-8.1-3.6-8.1-8.1v-30.1c0-4.5,3.6-8.1,8.1-8.1l0,0
	c4.5,0,8.1,3.6,8.1,8.1v30.1C317,218,313.3,221.7,308.9,221.7z"/>
<path id="XMLID_200_" class="st1" d="M303.8,209.9L303.8,209.9c3-3.3,8.2-3.4,11.4-0.4l29.4,27.5c3.3,3,3.4,8.2,0.4,11.4v0
	c-3,3.3-8.2,3.4-11.4,0.4l-29.4-27.5C300.9,218.3,300.7,213.1,303.8,209.9z"/>
<path id="XMLID_199_" class="st1" d="M339.1,251.1L339.1,251.1c-4.5,0-8.1-3.6-8.1-8.1v-89.4c0-4.5,3.6-8.1,8.1-8.1l0,0
	c4.5,0,8.1,3.6,8.1,8.1V243C347.2,247.5,343.6,251.1,339.1,251.1z"/>
<path id="XMLID_198_" class="st1" d="M369.3,251.1L369.3,251.1c-4.5,0-8.1-3.6-8.1-8.1v-89.4c0-4.5,3.6-8.1,8.1-8.1h0
	c4.5,0,8.1,3.6,8.1,8.1V243C377.4,247.5,373.8,251.1,369.3,251.1z"/>
</svg>
