<?xml version="1.0" encoding="utf-8"?>
<!-- Generator: Adobe Illustrator 19.0.0, SVG Export Plug-In . SVG Version: 6.00 Build 0)  -->
<svg version="1.1" id="Layer_1" xmlns="http://www.w3.org/2000/svg" xmlns:xlink="http://www.w3.org/1999/xlink" x="0px" y="0px"
	 viewBox="0 0 595.3 841.9" style="enable-background:new 0 0 595.3 841.9;" xml:space="preserve">
<style type="text/css">
	.st0{fill:none;stroke:#000000;stroke-width:5;stroke-miterlimit:10;}
	.st1{stroke:#000000;stroke-miterlimit:10;}
</style>
<path id="XMLID_209_" class="st0" d="M337.8,295.6h-219c-6.6,0-12-5.4-12-12V166.1c0-6.6,5.4-12,12-12h219c6.6,0,12,5.4,12,12v117.5
	C349.8,290.2,344.4,295.6,337.8,295.6z"/>
<path id="XMLID_208_" class="st1" d="M164.5,256.4L164.5,256.4c-4.5,0-8.1-3.6-8.1-8.1v-66.9c0-4.5,3.6-8.1,8.1-8.1h0
	c4.5,0,8.1,3.6,8.1,8.1v66.9C172.6,252.8,169,256.4,164.5,256.4z"/>
<path id="XMLID_207_" class="st1" d="M127.7,273.6L127.7,273.6c-2.2-3.9-0.9-8.8,3-11l29.8-17.1c3.9-2.2,8.8-0.9,11,3v0
	c2.2,3.9,0.9,8.8-3,11l-29.8,17.1C134.9,278.8,129.9,277.5,127.7,273.6z"/>
<path id="XMLID_206_" class="st1" d="M194,277.1L194,277.1c-4.5,0-8.1-3.6-8.1-8.1v-88.2c0-4.5,3.6-8.1,8.1-8.1h0
	c4.5,0,8.1,3.6,8.1,8.1V269C202,273.5,198.4,277.1,194,277.1z"/>
<path id="XMLID_205_" class="st1" d="M185.9,225.4L185.9,225.4c-0.1-4.5,3.5-8.1,8-8.2l28.9-0.4c4.5-0.1,8.1,3.5,8.2,8v0
	c0.1,4.5-3.5,8.1-8,8.2l-28.9,0.4C189.6,233.5,185.9,229.9,185.9,225.4z"/>
<path id="XMLID_204_" class="st1" d="M188,175.3L188,175.3c3-3.3,8.2-3.4,11.4-0.4l28.9,27c3.3,3,3.4,8.2,0.4,11.4l0,0
	c-3,3.3-8.2,3.4-11.4,0.4l-28.9-27C185.2,183.7,185,178.6,188,175.3z"/>
<path id="XMLID_203_" class="st1" d="M222.9,230.5L222.9,230.5c-4.5,0-8.1-3.6-8.1-8.1v-14.3c0-4.5,3.6-8.1,8.1-8.1h0
	c4.5,0,8.1,3.6,8.1,8.1v14.3C230.9,226.9,227.3,230.5,222.9,230.5z"/>
<path id="XMLID_202_" class="st1" d="M188,219.4L188,219.4c3-3.3,8.2-3.4,11.4-0.4l47.3,44.1c3.3,3,3.4,8.2,0.4,11.4h0
	c-3,3.3-8.2,3.4-11.4,0.4l-47.3-44.1C185.2,227.8,185,222.6,188,219.4z"/>
<path id="XMLID_201_" class="st1" d="M248.5,248.9L248.5,248.9c-4.5,0-8.1-3.6-8.1-8.1v-30.1c0-4.5,3.6-8.1,8.1-8.1h0
	c4.5,0,8.1,3.6,8.1,8.1v30.1C256.6,245.3,252.9,248.9,248.5,248.9z"/>
<path id="XMLID_200_" class="st1" d="M243.4,237.1L243.4,237.1c3-3.3,8.2-3.4,11.4-0.4l29.4,27.5c3.3,3,3.4,8.2,0.4,11.4l0,0
	c-3,3.3-8.2,3.4-11.4,0.4l-29.4-27.5C240.5,245.5,240.3,240.4,243.4,237.1z"/>
<path id="XMLID_199_" class="st1" d="M278.7,278.4L278.7,278.4c-4.5,0-8.1-3.6-8.1-8.1v-89.4c0-4.5,3.6-8.1,8.1-8.1l0,0
	c4.5,0,8.1,3.6,8.1,8.1v89.4C286.8,274.7,283.2,278.4,278.7,278.4z"/>
<path id="XMLID_198_" class="st1" d="M308.9,278.4L308.9,278.4c-4.5,0-8.1-3.6-8.1-8.1v-89.4c0-4.5,3.6-8.1,8.1-8.1h0
	c4.5,0,8.1,3.6,8.1,8.1v89.4C317,274.7,313.4,278.4,308.9,278.4z"/>
</svg>
